# Blender v2.75 (sub 0) OBJ File: 'model.blend'
# www.blender.org
o Cylinder
v 0.000000 -0.000000 -0.050000
v 0.000000 0.000000 0.050000
v 0.000000 0.500000 -0.050000
v 0.000000 0.500000 0.050000
v 0.049009 0.497592 -0.050000
v 0.049009 0.497592 0.050000
v 0.097545 0.490393 -0.050000
v 0.097545 0.490393 0.050000
v 0.145142 0.478470 -0.050000
v 0.145142 0.478470 0.050000
v 0.191342 0.461940 -0.050000
v 0.191342 0.461940 0.050000
v 0.235698 0.440961 -0.050000
v 0.235698 0.440961 0.050000
v 0.277785 0.415735 -0.050000
v 0.277785 0.415735 0.050000
v 0.317197 0.386505 -0.050000
v 0.317197 0.386505 0.050000
v 0.353553 0.353553 -0.050000
v 0.353553 0.353553 0.050000
v 0.386505 0.317197 -0.050000
v 0.386505 0.317197 0.050000
v 0.415735 0.277785 -0.050000
v 0.415735 0.277785 0.050000
v 0.440961 0.235698 -0.050000
v 0.440961 0.235698 0.050000
v 0.461940 0.191342 -0.050000
v 0.461940 0.191342 0.050000
v 0.478470 0.145142 -0.050000
v 0.478470 0.145142 0.050000
v 0.490393 0.097545 -0.050000
v 0.490393 0.097545 0.050000
v 0.497592 0.049009 -0.050000
v 0.497592 0.049009 0.050000
v 0.500000 -0.000000 -0.050000
v 0.500000 -0.000000 0.050000
v 0.497592 -0.049009 -0.050000
v 0.497592 -0.049009 0.050000
v 0.490393 -0.097545 -0.050000
v 0.490393 -0.097545 0.050000
v 0.478470 -0.145142 -0.050000
v 0.478470 -0.145142 0.050000
v 0.461940 -0.191342 -0.050000
v 0.461940 -0.191342 0.050000
v 0.440961 -0.235699 -0.050000
v 0.440961 -0.235699 0.050000
v 0.415735 -0.277785 -0.050000
v 0.415735 -0.277785 0.050000
v 0.386505 -0.317197 -0.050000
v 0.386505 -0.317197 0.050000
v 0.353553 -0.353554 -0.050000
v 0.353553 -0.353554 0.050000
v 0.317196 -0.386505 -0.050000
v 0.317196 -0.386505 0.050000
v 0.277785 -0.415735 -0.050000
v 0.277785 -0.415735 0.050000
v 0.235698 -0.440961 -0.050000
v 0.235698 -0.440961 0.050000
v 0.191341 -0.461940 -0.050000
v 0.191341 -0.461940 0.050000
v 0.145142 -0.478470 -0.050000
v 0.145142 -0.478470 0.050000
v 0.097545 -0.490393 -0.050000
v 0.097545 -0.490393 0.050000
v 0.049008 -0.497592 -0.050000
v 0.049008 -0.497592 0.050000
v -0.000000 -0.500000 -0.050000
v -0.000000 -0.500000 0.050000
v -0.049009 -0.497592 -0.050000
v -0.049009 -0.497592 0.050000
v -0.097546 -0.490393 -0.050000
v -0.097546 -0.490393 0.050000
v -0.145143 -0.478470 -0.050000
v -0.145143 -0.478470 0.050000
v -0.191342 -0.461940 -0.050000
v -0.191342 -0.461940 0.050000
v -0.235699 -0.440960 -0.050000
v -0.235699 -0.440960 0.050000
v -0.277786 -0.415735 -0.050000
v -0.277786 -0.415735 0.050000
v -0.317197 -0.386505 -0.050000
v -0.317197 -0.386505 0.050000
v -0.353554 -0.353553 -0.050000
v -0.353554 -0.353553 0.050000
v -0.386506 -0.317196 -0.050000
v -0.386506 -0.317196 0.050000
v -0.415735 -0.277785 -0.050000
v -0.415735 -0.277785 0.050000
v -0.440961 -0.235698 -0.050000
v -0.440961 -0.235698 0.050000
v -0.461940 -0.191342 -0.050000
v -0.461940 -0.191342 0.050000
v -0.478470 -0.145142 -0.050000
v -0.478470 -0.145142 0.050000
v -0.490393 -0.097545 -0.050000
v -0.490393 -0.097545 0.050000
v -0.497592 -0.049009 -0.050000
v -0.497592 -0.049009 0.050000
v -0.500000 -0.000000 -0.050000
v -0.500000 -0.000000 0.050000
v -0.497592 0.049008 -0.050000
v -0.497592 0.049008 0.050000
v -0.490393 0.097545 -0.050000
v -0.490393 0.097545 0.050000
v -0.478470 0.145142 -0.050000
v -0.478470 0.145142 0.050000
v -0.461940 0.191341 -0.050000
v -0.461940 0.191341 0.050000
v -0.440961 0.235698 -0.050000
v -0.440961 0.235698 0.050000
v -0.415735 0.277784 -0.050000
v -0.415735 0.277784 0.050000
v -0.386506 0.317196 -0.050000
v -0.386506 0.317196 0.050000
v -0.353554 0.353553 -0.050000
v -0.353554 0.353553 0.050000
v -0.317198 0.386505 -0.050000
v -0.317198 0.386505 0.050000
v -0.277786 0.415734 -0.050000
v -0.277786 0.415734 0.050000
v -0.235700 0.440960 -0.050000
v -0.235700 0.440960 0.050000
v -0.191343 0.461939 -0.050000
v -0.191343 0.461939 0.050000
v -0.145144 0.478470 -0.050000
v -0.145144 0.478470 0.050000
v -0.097547 0.490392 -0.050000
v -0.097547 0.490392 0.050000
v -0.049010 0.497592 -0.050000
v -0.049010 0.497592 0.050000
vt 0.161782 0.161782
vt 0.138609 0.005559
vt 0.154034 0.004040
vt 0.161782 0.485346
vt 0.138609 0.641569
vt 0.123408 0.638546
vt 0.995960 0.651168
vt 0.995960 0.682755
vt 0.980461 0.682755
vt 0.169532 0.004040
vt 0.154033 0.643088
vt 0.980461 0.651168
vt 0.964963 0.682755
vt 0.184956 0.005559
vt 0.169531 0.643088
vt 0.964963 0.651168
vt 0.949464 0.682755
vt 0.200157 0.008583
vt 0.184956 0.641569
vt 0.949464 0.651168
vt 0.933965 0.682755
vt 0.214989 0.013082
vt 0.200156 0.638546
vt 0.933965 0.651168
vt 0.918466 0.682755
vt 0.229308 0.019013
vt 0.214988 0.634046
vt 0.918466 0.651168
vt 0.902968 0.682755
vt 0.242976 0.026319
vt 0.229307 0.628115
vt 0.902968 0.651168
vt 0.887469 0.682755
vt 0.255863 0.034930
vt 0.242976 0.620809
vt 0.887469 0.651168
vt 0.871970 0.682755
vt 0.267844 0.044763
vt 0.255862 0.612199
vt 0.871970 0.651168
vt 0.856471 0.682755
vt 0.278803 0.055722
vt 0.267843 0.602366
vt 0.856471 0.651168
vt 0.840973 0.682755
vt 0.288635 0.067703
vt 0.278802 0.591407
vt 0.840973 0.651168
vt 0.825474 0.682755
vt 0.297246 0.080589
vt 0.288635 0.579426
vt 0.825474 0.651168
vt 0.809975 0.682755
vt 0.304552 0.094258
vt 0.297245 0.566540
vt 0.809975 0.651168
vt 0.794476 0.682755
vt 0.310483 0.108577
vt 0.304551 0.552871
vt 0.794476 0.651168
vt 0.778978 0.682755
vt 0.314982 0.123409
vt 0.310482 0.538552
vt 0.778978 0.651169
vt 0.763479 0.682755
vt 0.318005 0.138609
vt 0.314981 0.523721
vt 0.763479 0.651169
vt 0.747980 0.682755
vt 0.319524 0.154034
vt 0.318005 0.508520
vt 0.747980 0.651169
vt 0.732481 0.682755
vt 0.319524 0.169532
vt 0.319524 0.493096
vt 0.732481 0.651169
vt 0.716983 0.682755
vt 0.318005 0.184956
vt 0.319524 0.477597
vt 0.716983 0.651169
vt 0.701484 0.682755
vt 0.314981 0.200157
vt 0.318005 0.462173
vt 0.701484 0.651169
vt 0.685985 0.682755
vt 0.310482 0.214988
vt 0.314982 0.446972
vt 0.685985 0.651169
vt 0.670486 0.682755
vt 0.304551 0.229307
vt 0.310483 0.432141
vt 0.670486 0.651169
vt 0.654988 0.682755
vt 0.297245 0.242976
vt 0.304551 0.417822
vt 0.654988 0.651169
vt 0.639489 0.682755
vt 0.288634 0.255863
vt 0.297245 0.404153
vt 0.639489 0.651169
vt 0.623990 0.682755
vt 0.278802 0.267843
vt 0.288635 0.391266
vt 0.623990 0.651169
vt 0.608491 0.682755
vt 0.267843 0.278803
vt 0.278803 0.379286
vt 0.608491 0.651169
vt 0.592992 0.682755
vt 0.255862 0.288635
vt 0.267843 0.368326
vt 0.592992 0.651169
vt 0.577494 0.682755
vt 0.242975 0.297246
vt 0.255863 0.358494
vt 0.577494 0.651169
vt 0.561995 0.682755
vt 0.229306 0.304552
vt 0.242976 0.349883
vt 0.561995 0.651169
vt 0.546496 0.682755
vt 0.214987 0.310483
vt 0.229307 0.342577
vt 0.546496 0.651169
vt 0.530997 0.682755
vt 0.200156 0.314982
vt 0.214988 0.336646
vt 0.530997 0.651169
vt 0.515499 0.682755
vt 0.184955 0.318005
vt 0.200157 0.332147
vt 0.515499 0.651169
vt 0.500000 0.682755
vt 0.169531 0.319524
vt 0.184956 0.329123
vt 0.500000 0.651169
vt 0.484501 0.682755
vt 0.154032 0.319524
vt 0.169532 0.327604
vt 0.484501 0.651169
vt 0.469002 0.682755
vt 0.138608 0.318005
vt 0.154033 0.327604
vt 0.469002 0.651169
vt 0.453504 0.682755
vt 0.123407 0.314981
vt 0.138609 0.329123
vt 0.453504 0.651169
vt 0.438005 0.682755
vt 0.108575 0.310482
vt 0.123407 0.332147
vt 0.438005 0.651169
vt 0.422506 0.682755
vt 0.094256 0.304551
vt 0.108576 0.336646
vt 0.422506 0.651169
vt 0.407007 0.682755
vt 0.080588 0.297245
vt 0.094257 0.342577
vt 0.407007 0.651169
vt 0.391509 0.682755
vt 0.067701 0.288634
vt 0.080588 0.349883
vt 0.391509 0.651169
vt 0.376010 0.682755
vt 0.055720 0.278801
vt 0.067702 0.358494
vt 0.376010 0.651169
vt 0.360511 0.682755
vt 0.044761 0.267842
vt 0.055721 0.368326
vt 0.360511 0.651169
vt 0.345012 0.682755
vt 0.034929 0.255861
vt 0.044762 0.379286
vt 0.345012 0.651169
vt 0.329514 0.682755
vt 0.026318 0.242974
vt 0.034929 0.391266
vt 0.329514 0.651169
vt 0.314015 0.682755
vt 0.019012 0.229306
vt 0.026319 0.404153
vt 0.314015 0.651169
vt 0.298516 0.682755
vt 0.013081 0.214987
vt 0.019013 0.417821
vt 0.298516 0.651169
vt 0.283017 0.682755
vt 0.008583 0.200156
vt 0.013082 0.432140
vt 0.283017 0.651169
vt 0.267519 0.682755
vt 0.005559 0.184955
vt 0.008583 0.446972
vt 0.267519 0.651169
vt 0.252020 0.682755
vt 0.004040 0.169531
vt 0.005559 0.462173
vt 0.252020 0.651169
vt 0.236521 0.682755
vt 0.004040 0.154032
vt 0.004040 0.477597
vt 0.236521 0.651169
vt 0.221023 0.682755
vt 0.005559 0.138608
vt 0.004040 0.493095
vt 0.221023 0.651169
vt 0.205524 0.682755
vt 0.008583 0.123407
vt 0.005559 0.508519
vt 0.205524 0.651169
vt 0.190025 0.682755
vt 0.013082 0.108576
vt 0.008583 0.523720
vt 0.190025 0.651169
vt 0.174526 0.682755
vt 0.019013 0.094257
vt 0.013082 0.538552
vt 0.174526 0.651169
vt 0.159028 0.682755
vt 0.026319 0.080588
vt 0.019013 0.552871
vt 0.159028 0.651169
vt 0.143529 0.682755
vt 0.034930 0.067701
vt 0.026319 0.566539
vt 0.143529 0.651169
vt 0.128030 0.682755
vt 0.044762 0.055721
vt 0.034929 0.579426
vt 0.128030 0.651169
vt 0.112532 0.682755
vt 0.055722 0.044761
vt 0.044762 0.591407
vt 0.112532 0.651169
vt 0.097033 0.682755
vt 0.067703 0.034929
vt 0.055721 0.602366
vt 0.097033 0.651169
vt 0.081534 0.682755
vt 0.080589 0.026319
vt 0.067702 0.612198
vt 0.081534 0.651169
vt 0.066035 0.682755
vt 0.094258 0.019013
vt 0.080588 0.620809
vt 0.066035 0.651169
vt 0.050537 0.682755
vt 0.108577 0.013082
vt 0.094257 0.628115
vt 0.050537 0.651169
vt 0.035038 0.682755
vt 0.123408 0.008583
vt 0.108576 0.634046
vt 0.035038 0.651169
vt 0.019539 0.682755
vt 0.019539 0.651169
vt 0.004040 0.682755
vt 0.004040 0.651169
vn 0.000000 -0.000000 -1.000000
vn 0.000000 0.000000 1.000000
vn 0.049100 0.998800 0.000000
vn 0.146700 0.989200 0.000000
vn 0.243000 0.970000 0.000000
vn 0.336900 0.941500 0.000000
vn 0.427600 0.904000 0.000000
vn 0.514100 0.857700 0.000000
vn 0.595700 0.803200 0.000000
vn 0.671600 0.741000 0.000000
vn 0.741000 0.671600 0.000000
vn 0.803200 0.595700 0.000000
vn 0.857700 0.514100 0.000000
vn 0.904000 0.427600 0.000000
vn 0.941500 0.336900 0.000000
vn 0.970000 0.243000 0.000000
vn 0.989200 0.146700 -0.000000
vn 0.998800 0.049100 -0.000000
vn 0.998800 -0.049100 0.000000
vn 0.989200 -0.146700 0.000000
vn 0.970000 -0.243000 0.000000
vn 0.941500 -0.336900 0.000000
vn 0.904000 -0.427600 0.000000
vn 0.857700 -0.514100 0.000000
vn 0.803200 -0.595700 0.000000
vn 0.741000 -0.671600 0.000000
vn 0.671600 -0.741000 0.000000
vn 0.595700 -0.803200 0.000000
vn 0.514100 -0.857700 0.000000
vn 0.427600 -0.904000 0.000000
vn 0.336900 -0.941500 0.000000
vn 0.243000 -0.970000 0.000000
vn 0.146700 -0.989200 0.000000
vn 0.049100 -0.998800 0.000000
vn -0.049100 -0.998800 0.000000
vn -0.146700 -0.989200 0.000000
vn -0.243000 -0.970000 0.000000
vn -0.336900 -0.941500 0.000000
vn -0.427600 -0.904000 0.000000
vn -0.514100 -0.857700 0.000000
vn -0.595700 -0.803200 0.000000
vn -0.671600 -0.741000 0.000000
vn -0.741000 -0.671600 0.000000
vn -0.803200 -0.595700 0.000000
vn -0.857700 -0.514100 0.000000
vn -0.904000 -0.427600 0.000000
vn -0.941500 -0.336900 0.000000
vn -0.970000 -0.243000 0.000000
vn -0.989200 -0.146700 0.000000
vn -0.998800 -0.049100 0.000000
vn -0.998800 0.049100 -0.000000
vn -0.989200 0.146700 0.000000
vn -0.970000 0.243000 0.000000
vn -0.941500 0.336900 0.000000
vn -0.904000 0.427600 0.000000
vn -0.857700 0.514100 0.000000
vn -0.803200 0.595700 0.000000
vn -0.741000 0.671600 0.000000
vn -0.671600 0.741000 0.000000
vn -0.595700 0.803200 0.000000
vn -0.514100 0.857700 0.000000
vn -0.427600 0.904000 0.000000
vn -0.336900 0.941500 0.000000
vn -0.243000 0.970000 0.000000
vn -0.146700 0.989200 0.000000
vn -0.049100 0.998800 0.000000
vn -0.671600 0.740900 0.000000
s off
f 1/1/1 3/2/1 5/3/1
f 2/4/2 6/5/2 4/6/2
f 3/7/3 4/8/3 6/9/3
f 1/1/1 5/3/1 7/10/1
f 2/4/2 8/11/2 6/5/2
f 5/12/4 6/9/4 8/13/4
f 1/1/1 7/10/1 9/14/1
f 2/4/2 10/15/2 8/11/2
f 7/16/5 8/13/5 10/17/5
f 1/1/1 9/14/1 11/18/1
f 2/4/2 12/19/2 10/15/2
f 9/20/6 10/17/6 12/21/6
f 1/1/1 11/18/1 13/22/1
f 2/4/2 14/23/2 12/19/2
f 11/24/7 12/21/7 14/25/7
f 1/1/1 13/22/1 15/26/1
f 2/4/2 16/27/2 14/23/2
f 13/28/8 14/25/8 16/29/8
f 1/1/1 15/26/1 17/30/1
f 2/4/2 18/31/2 16/27/2
f 15/32/9 16/29/9 18/33/9
f 1/1/1 17/30/1 19/34/1
f 2/4/2 20/35/2 18/31/2
f 17/36/10 18/33/10 20/37/10
f 1/1/1 19/34/1 21/38/1
f 2/4/2 22/39/2 20/35/2
f 19/40/11 20/37/11 22/41/11
f 1/1/1 21/38/1 23/42/1
f 2/4/2 24/43/2 22/39/2
f 21/44/12 22/41/12 24/45/12
f 1/1/1 23/42/1 25/46/1
f 2/4/2 26/47/2 24/43/2
f 23/48/13 24/45/13 26/49/13
f 1/1/1 25/46/1 27/50/1
f 2/4/2 28/51/2 26/47/2
f 25/52/14 26/49/14 28/53/14
f 1/1/1 27/50/1 29/54/1
f 2/4/2 30/55/2 28/51/2
f 27/56/15 28/53/15 30/57/15
f 1/1/1 29/54/1 31/58/1
f 2/4/2 32/59/2 30/55/2
f 29/60/16 30/57/16 32/61/16
f 1/1/1 31/58/1 33/62/1
f 2/4/2 34/63/2 32/59/2
f 31/64/17 32/61/17 34/65/17
f 1/1/1 33/62/1 35/66/1
f 2/4/2 36/67/2 34/63/2
f 33/68/18 34/65/18 36/69/18
f 1/1/1 35/66/1 37/70/1
f 2/4/2 38/71/2 36/67/2
f 35/72/19 36/69/19 38/73/19
f 1/1/1 37/70/1 39/74/1
f 2/4/2 40/75/2 38/71/2
f 37/76/20 38/73/20 40/77/20
f 1/1/1 39/74/1 41/78/1
f 2/4/2 42/79/2 40/75/2
f 39/80/21 40/77/21 42/81/21
f 1/1/1 41/78/1 43/82/1
f 2/4/2 44/83/2 42/79/2
f 41/84/22 42/81/22 44/85/22
f 1/1/1 43/82/1 45/86/1
f 2/4/2 46/87/2 44/83/2
f 43/88/23 44/85/23 46/89/23
f 1/1/1 45/86/1 47/90/1
f 2/4/2 48/91/2 46/87/2
f 45/92/24 46/89/24 48/93/24
f 1/1/1 47/90/1 49/94/1
f 2/4/2 50/95/2 48/91/2
f 47/96/25 48/93/25 50/97/25
f 1/1/1 49/94/1 51/98/1
f 2/4/2 52/99/2 50/95/2
f 49/100/26 50/97/26 52/101/26
f 1/1/1 51/98/1 53/102/1
f 2/4/2 54/103/2 52/99/2
f 51/104/27 52/101/27 54/105/27
f 1/1/1 53/102/1 55/106/1
f 2/4/2 56/107/2 54/103/2
f 53/108/28 54/105/28 56/109/28
f 1/1/1 55/106/1 57/110/1
f 2/4/2 58/111/2 56/107/2
f 55/112/29 56/109/29 58/113/29
f 1/1/1 57/110/1 59/114/1
f 2/4/2 60/115/2 58/111/2
f 57/116/30 58/113/30 60/117/30
f 1/1/1 59/114/1 61/118/1
f 2/4/2 62/119/2 60/115/2
f 59/120/31 60/117/31 62/121/31
f 1/1/1 61/118/1 63/122/1
f 2/4/2 64/123/2 62/119/2
f 61/124/32 62/121/32 64/125/32
f 1/1/1 63/122/1 65/126/1
f 2/4/2 66/127/2 64/123/2
f 63/128/33 64/125/33 66/129/33
f 1/1/1 65/126/1 67/130/1
f 2/4/2 68/131/2 66/127/2
f 65/132/34 66/129/34 68/133/34
f 1/1/1 67/130/1 69/134/1
f 2/4/2 70/135/2 68/131/2
f 67/136/35 68/133/35 70/137/35
f 1/1/1 69/134/1 71/138/1
f 2/4/2 72/139/2 70/135/2
f 69/140/36 70/137/36 72/141/36
f 1/1/1 71/138/1 73/142/1
f 2/4/2 74/143/2 72/139/2
f 71/144/37 72/141/37 74/145/37
f 1/1/1 73/142/1 75/146/1
f 2/4/2 76/147/2 74/143/2
f 73/148/38 74/145/38 76/149/38
f 1/1/1 75/146/1 77/150/1
f 2/4/2 78/151/2 76/147/2
f 75/152/39 76/149/39 78/153/39
f 1/1/1 77/150/1 79/154/1
f 2/4/2 80/155/2 78/151/2
f 77/156/40 78/153/40 80/157/40
f 1/1/1 79/154/1 81/158/1
f 2/4/2 82/159/2 80/155/2
f 79/160/41 80/157/41 82/161/41
f 1/1/1 81/158/1 83/162/1
f 2/4/2 84/163/2 82/159/2
f 81/164/42 82/161/42 84/165/42
f 1/1/1 83/162/1 85/166/1
f 2/4/2 86/167/2 84/163/2
f 83/168/43 84/165/43 86/169/43
f 1/1/1 85/166/1 87/170/1
f 2/4/2 88/171/2 86/167/2
f 85/172/44 86/169/44 88/173/44
f 1/1/1 87/170/1 89/174/1
f 2/4/2 90/175/2 88/171/2
f 87/176/45 88/173/45 90/177/45
f 1/1/1 89/174/1 91/178/1
f 2/4/2 92/179/2 90/175/2
f 89/180/46 90/177/46 92/181/46
f 1/1/1 91/178/1 93/182/1
f 2/4/2 94/183/2 92/179/2
f 91/184/47 92/181/47 94/185/47
f 1/1/1 93/182/1 95/186/1
f 2/4/2 96/187/2 94/183/2
f 93/188/48 94/185/48 96/189/48
f 1/1/1 95/186/1 97/190/1
f 2/4/2 98/191/2 96/187/2
f 95/192/49 96/189/49 98/193/49
f 1/1/1 97/190/1 99/194/1
f 2/4/2 100/195/2 98/191/2
f 97/196/50 98/193/50 100/197/50
f 1/1/1 99/194/1 101/198/1
f 2/4/2 102/199/2 100/195/2
f 99/200/51 100/197/51 102/201/51
f 1/1/1 101/198/1 103/202/1
f 2/4/2 104/203/2 102/199/2
f 101/204/52 102/201/52 104/205/52
f 1/1/1 103/202/1 105/206/1
f 2/4/2 106/207/2 104/203/2
f 103/208/53 104/205/53 106/209/53
f 1/1/1 105/206/1 107/210/1
f 2/4/2 108/211/2 106/207/2
f 105/212/54 106/209/54 108/213/54
f 1/1/1 107/210/1 109/214/1
f 2/4/2 110/215/2 108/211/2
f 107/216/55 108/213/55 110/217/55
f 1/1/1 109/214/1 111/218/1
f 2/4/2 112/219/2 110/215/2
f 109/220/56 110/217/56 112/221/56
f 1/1/1 111/218/1 113/222/1
f 2/4/2 114/223/2 112/219/2
f 111/224/57 112/221/57 114/225/57
f 1/1/1 113/222/1 115/226/1
f 2/4/2 116/227/2 114/223/2
f 113/228/58 114/225/58 116/229/58
f 1/1/1 115/226/1 117/230/1
f 2/4/2 118/231/2 116/227/2
f 115/232/59 116/229/59 118/233/59
f 1/1/1 117/230/1 119/234/1
f 2/4/2 120/235/2 118/231/2
f 117/236/60 118/233/60 120/237/60
f 1/1/1 119/234/1 121/238/1
f 2/4/2 122/239/2 120/235/2
f 119/240/61 120/237/61 122/241/61
f 1/1/1 121/238/1 123/242/1
f 2/4/2 124/243/2 122/239/2
f 121/244/62 122/241/62 124/245/62
f 1/1/1 123/242/1 125/246/1
f 2/4/2 126/247/2 124/243/2
f 123/248/63 124/245/63 126/249/63
f 1/1/1 125/246/1 127/250/1
f 2/4/2 128/251/2 126/247/2
f 125/252/64 126/249/64 128/253/64
f 1/1/1 127/250/1 129/254/1
f 2/4/2 130/255/2 128/251/2
f 127/256/65 128/253/65 130/257/65
f 1/1/1 129/254/1 3/2/1
f 2/4/2 4/6/2 130/255/2
f 129/258/66 130/257/66 4/259/66
f 5/12/3 3/7/3 6/9/3
f 7/16/4 5/12/4 8/13/4
f 9/20/5 7/16/5 10/17/5
f 11/24/6 9/20/6 12/21/6
f 13/28/7 11/24/7 14/25/7
f 15/32/8 13/28/8 16/29/8
f 17/36/9 15/32/9 18/33/9
f 19/40/10 17/36/10 20/37/10
f 21/44/11 19/40/11 22/41/11
f 23/48/12 21/44/12 24/45/12
f 25/52/13 23/48/13 26/49/13
f 27/56/14 25/52/14 28/53/14
f 29/60/15 27/56/15 30/57/15
f 31/64/16 29/60/16 32/61/16
f 33/68/17 31/64/17 34/65/17
f 35/72/18 33/68/18 36/69/18
f 37/76/19 35/72/19 38/73/19
f 39/80/20 37/76/20 40/77/20
f 41/84/21 39/80/21 42/81/21
f 43/88/22 41/84/22 44/85/22
f 45/92/23 43/88/23 46/89/23
f 47/96/24 45/92/24 48/93/24
f 49/100/25 47/96/25 50/97/25
f 51/104/26 49/100/26 52/101/26
f 53/108/27 51/104/27 54/105/27
f 55/112/28 53/108/28 56/109/28
f 57/116/29 55/112/29 58/113/29
f 59/120/30 57/116/30 60/117/30
f 61/124/31 59/120/31 62/121/31
f 63/128/32 61/124/32 64/125/32
f 65/132/33 63/128/33 66/129/33
f 67/136/34 65/132/34 68/133/34
f 69/140/35 67/136/35 70/137/35
f 71/144/36 69/140/36 72/141/36
f 73/148/37 71/144/37 74/145/37
f 75/152/38 73/148/38 76/149/38
f 77/156/39 75/152/39 78/153/39
f 79/160/40 77/156/40 80/157/40
f 81/164/41 79/160/41 82/161/41
f 83/168/42 81/164/42 84/165/42
f 85/172/43 83/168/43 86/169/43
f 87/176/44 85/172/44 88/173/44
f 89/180/45 87/176/45 90/177/45
f 91/184/46 89/180/46 92/181/46
f 93/188/47 91/184/47 94/185/47
f 95/192/48 93/188/48 96/189/48
f 97/196/49 95/192/49 98/193/49
f 99/200/50 97/196/50 100/197/50
f 101/204/51 99/200/51 102/201/51
f 103/208/52 101/204/52 104/205/52
f 105/212/53 103/208/53 106/209/53
f 107/216/54 105/212/54 108/213/54
f 109/220/55 107/216/55 110/217/55
f 111/224/56 109/220/56 112/221/56
f 113/228/57 111/224/57 114/225/57
f 115/232/58 113/228/58 116/229/58
f 117/236/67 115/232/67 118/233/67
f 119/240/60 117/236/60 120/237/60
f 121/244/61 119/240/61 122/241/61
f 123/248/62 121/244/62 124/245/62
f 125/252/63 123/248/63 126/249/63
f 127/256/64 125/252/64 128/253/64
f 129/258/65 127/256/65 130/257/65
f 3/260/66 129/258/66 4/259/66
